#!OML:ASF F:\VICON\USERDATA\INSTALL\rory3\rory3.ASF
:FULLY-SPECIFIED
:DEGREES
389
root 4.60649 16.7646 2.33312 9.76629 -5.33573 -0.2524
lowerback 2.24814 -0.64671 -0.801414
upperback -0.453596 -0.899491 -0.823325
thorax -1.72565 -0.445311 -0.361102
lowerneck -12.502 -0.470136 -0.581855
upperneck 43.7577 -0.80307 0.140164
head 18.6678 -0.470246 -0.000410004
rclavicle -4.17448e-015 8.34896e-015
rhumerus 18.5399 17.4167 -18.0927
rradius 99.5451
rwrist -48.3923
rhand -9.46469 -47.7804
rfingers 7.12502
rthumb 16.4991 -77.0989
lclavicle -4.17448e-015 8.34896e-015
lhumerus 36.2174 -7.76675 14.4358
lradius 84.848
lwrist 86.6058
lhand -24.3894 -16.5136
lfingers 7.12502
lthumb 2.10126 13.4558
rfemur -56.0433 -0.707662 14.5533
rtibia 31.86
rfoot 37.6154 -3.59583
rtoes 3.89223
lfemur -30.7601 1.9585 -30.4451
ltibia 41.3295
lfoot -19.1529 4.04453
ltoes 15.0354
390
root 4.60203 16.7529 2.32409 9.77328 -5.16856 -0.347756
lowerback 2.2072 -0.644859 -0.704523
upperback -0.315274 -0.891803 -0.807919
thorax -1.56207 -0.442782 -0.401325
lowerneck -12.595 -0.541048 -0.592363
upperneck 43.7972 -0.923334 0.172803
head 18.72 -0.514181 -0.00545046
rclavicle -2.17669e-014 -2.42517e-014
rhumerus 18.3232 17.7129 -18.1686
rradius 99.458
rwrist -48.3145
rhand -9.40372 -47.1913
rfingers 7.12502
rthumb 16.5578 -76.5049
lclavicle -2.17669e-014 -2.42517e-014
lhumerus 36.4317 -8.1626 14.5319
lradius 84.8331
lwrist 86.3947
lhand -24.2968 -17.6959
lfingers 7.12502
lthumb 2.19071 12.2726
rfemur -56.1217 -0.594449 14.5987
rtibia 31.9041
rfoot 37.5665 -4.17013
rtoes 4.13349
lfemur -30.9438 1.88144 -30.3065
ltibia 41.5734
lfoot -19.2126 3.99286
ltoes 14.9071
391
root 4.59183 16.7427 2.31441 9.6874 -5.07271 -0.260528
lowerback 2.5113 -0.77779 -1.01372
upperback 0.140369 -1.0745 -0.677996
thorax -1.25785 -0.532743 -0.0881272
lowerneck -14.1448 -0.427823 -0.713819
upperneck 44.0102 -0.6404 0.0624422
head 19.2974 -0.433722 0.0106464
rclavicle 3.08116e-015 3.97569e-016
rhumerus 19.0988 17.4555 -18.0195
rradius 99.2279
rwrist -48.3166
rhand -9.47651 -47.2876
rfingers 7.12502
rthumb 16.4877 -76.6071
lclavicle 3.08116e-015 3.97569e-016
lhumerus 36.2632 -7.74829 14.7408
lradius 84.8329
lwrist 86.1842
lhand -24.4162 -19.5995
lfingers 7.12502
lthumb 2.07542 10.3701
rfemur -56.1222 -0.388159 14.4204
rtibia 31.9403
rfoot 37.6965 -4.51123
rtoes 4.44546
lfemur -31.0316 1.97453 -30.3635
ltibia 41.8144
lfoot -19.2879 3.84133
ltoes 15.0532
392
root 4.58591 16.7329 2.30847 9.67003 -5.06567 -0.0935489
lowerback 2.67237 -0.757193 -1.25671
upperback 0.295038 -1.05571 -0.748972
thorax -1.1867 -0.522933 -0.0243586
lowerneck -14.702 -0.42182 -0.593562
upperneck 44.1066 -0.67415 0.0762942
head 19.5227 -0.422621 -0.0131742
rclavicle 6.55989e-015 5.1684e-015
rhumerus 19.1719 17.5951 -18.1893
rradius 99.1137
rwrist -48.3258
rhand -9.63316 -47.4887
rfingers 7.12502
rthumb 16.3369 -76.8206
lclavicle 6.55989e-015 5.1684e-015
lhumerus 36.352 -7.94494 14.8606
lradius 84.92
lwrist 86.1063
lhand -24.8753 -21.07
lfingers 7.12502
lthumb 1.63199 8.90351
rfemur -56.2527 -0.353227 14.2951
rtibia 31.9891
rfoot 37.8734 -4.24349
rtoes 4.45933
lfemur -31.1739 2.23499 -30.5716
ltibia 42.0381
lfoot -19.3735 3.59085
ltoes 15.2522
393
root 4.5837 16.7192 2.30018 9.75778 -4.99323 -0.157281
lowerback 2.60529 -0.536481 -1.06357
upperback -0.305103 -0.76583 -0.922105
thorax -1.77167 -0.376445 -0.317559
lowerneck -12.4172 -0.674625 -0.353156
upperneck 43.8818 -1.18734 0.125444
head 18.723 -0.583449 -0.119739
rclavicle -7.95139e-015 -3.57812e-015
rhumerus 17.6871 18.9808 -18.6577
rradius 99.2567
rwrist -48.2792
rhand -9.49364 -47.3895
rfingers 7.12502
rthumb 16.4712 -76.7103
lclavicle -7.95139e-015 -3.57812e-015
lhumerus 36.6548 -9.78044 14.906
lradius 85.1188
lwrist 86.2713
lhand -25.3463 -21.4786
lfingers 7.12502
lthumb 1.17707 8.49791
rfemur -56.4777 -0.369184 14.4205
rtibia 32.0298
rfoot 38.0141 -4.21181
rtoes 5.34389
lfemur -31.4414 2.44665 -30.5405
ltibia 42.2583
lfoot -19.4195 3.32855
ltoes 15.2581
394
root 4.58083 16.7051 2.29031 9.74135 -4.86917 -0.144263
lowerback 2.8029 -0.480579 -1.05297
upperback -0.474124 -0.697361 -0.944479
thorax -2.0566 -0.341235 -0.346621
lowerneck -11.7134 -0.785684 -0.261506
upperneck 43.8317 -1.32078 -0.0313085
head 18.4924 -0.644252 -0.230616
rclavicle -1.799e-014 -7.95139e-016
rhumerus 17.1421 19.6707 -18.8787
rradius 99.2437
rwrist -48.1276
rhand -8.93789 -47.7955
rfingers 7.12502
rthumb 17.0062 -77.071
lclavicle -1.799e-014 -7.95139e-016
lhumerus 36.7144 -10.648 14.9363
lradius 85.3175
lwrist 86.306
lhand -25.3762 -21.0988
lfingers 7.12502
lthumb 1.14822 8.87786
rfemur -56.543 -0.345864 14.3751
rtibia 32.0307
rfoot 38.0878 -4.58869
rtoes 6.27683
lfemur -31.6029 2.55858 -30.5692
ltibia 42.4685
lfoot -19.4451 3.14483
ltoes 15.0216
